<?xml version="1.0" standalone="no"?><!DOCTYPE svg PUBLIC "-//W3C//DTD SVG 1.1//EN" "http://www.w3.org/Graphics/SVG/1.1/DTD/svg11.dtd"><svg class="icon" width="200px" height="186.52px" viewBox="0 0 1098 1024" version="1.1" xmlns="http://www.w3.org/2000/svg"><path fill="#bfbfbf" d="M1097.349568 981.692277a42.289053 42.289053 0 1 1-84.578105 0v-22.815551c0-105.731967-215.347431-255.414675-462.416319-255.414674-196.434049 0-465.702356 125.746918-465.702356 250.952386v27.259168a42.289053 42.289053 0 0 1-84.578105 0v-52.856648c0-63.480255 94.044131-225.915027 350.579045-286.015892a351.867322 351.867322 0 1 1 400.541741-3.342048c259.316843 57.879056 346.116757 228.715626 346.116758 289.395282zM815.777294 351.762766a267.10251 267.10251 0 1 0-267.10251 267.10251 267.177193 267.177193 0 0 0 267.10251-267.10251z" /></svg>